<svg enable-background="new 0 0 113 116" viewBox="0 0 113 116" xmlns="http://www.w3.org/2000/svg"><path d="m27.4 51.6v12.2c0 4.3 3.5 7.7 7.7 7.7h11.9 19 11.8c4.3 0 7.7-3.5 7.7-7.7v-12.2z" fill="#ec1c24"/><path d="m85.5 49.9v-13.6c0-4.3-3.5-7.7-7.7-7.7h-42.6c-4.3 0-7.7 3.5-7.7 7.7v13.6z" fill="#ec1c24"/><path d="m56.5 3c-13.2 0-23.9 10.6-23.9 23.7h47.7c0-13.1-10.6-23.7-23.8-23.7z" fill="#ec1c24"/><circle cx="43.4" cy="18.5" fill="#fff" r="5.2"/><circle cx="69.5" cy="18.5" fill="#fff" r="5.2"/><g fill="#ec1c24"><path d="m63.3 73.3h16.5v12h-16.5z"/><path d="m61.5 104.9h24.1l-3.2-18.1h-19.6z"/><path d="m60 113.4h31v-3.6l-4.5-3.4h-26.5z"/><path d="m33.2 73.3h16.5v12h-16.5z"/><path d="m51.4 104.9h-24.1l3.3-18.1h19.5z"/><path d="m52.9 113.4h-30.9v-3.6l4.5-3.4h26.4z"/><path d="m88 99.2v-12.4h20s-2.5 12.4-20 12.4z"/><path d="m105.7 58.8h4s0-.1 0-5.7c0-5.5-5.3-17.9-18.4-17.9-1.7 0-3.9 0-3.9 0v23.6h4.8v5.8h-1.8l-2.4 20.6h20l-2.4-20.6h-1.8v-5.8z"/><path d="m25 99.2v-12.4h-20s2.5 12.4 20 12.4z"/><path d="m25.6 58.8v-23.6s-2.1 0-3.9 0c-13 0-18.4 12.4-18.4 17.9v5.7h4 1.9v5.8h-1.8l-2.4 20.6h20l-2.4-20.6h-1.8v-5.8z"/></g><circle cx="56.5" cy="50.1" fill="#fff" r="15.5"/><path d="m56.6 54.9-4.6-14.9h-5.9v20.3h4v-14h.1c.4 2.3.7 3.2 1.2 4.7l3 9.3h3.9l3-9.3c.4-1.5.8-2.8 1.1-4.5h.1v13.8h4.3v-20.3h-6z" fill="#ed1c24"/></svg>